<svg width="260" height="159" viewBox="0 0 260 159" fill="none" xmlns="http://www.w3.org/2000/svg">
<path d="M206.3 158.4C176.8 158.4 152.8 135.6 152.8 107.6V96.9C152.8 68.9 176.8 46.1 206.3 46.1C235.8 46.1 259.8 68.9 259.8 96.9V102.3C259.8 107.3 255.8 111.3 250.8 111.3C245.8 111.3 241.8 107.3 241.8 102.3V96.9C241.8 78.8 225.9 64.1 206.3 64.1C186.7 64.1 170.8 78.8 170.8 96.9V107.6C170.8 125.7 186.7 140.4 206.3 140.4C217.3 140.4 227.3 135.9 234.5 127.7C237.8 124 243.5 123.6 247.2 126.9C250.9 130.2 251.3 135.9 248 139.6C237.3 151.7 222.5 158.4 206.3 158.4Z" fill="#0059F8"/>
<path d="M86.5 88.2H39.7C34.7 88.2 30.7 84.2 30.7 79.2C30.7 74.2 34.7 70.2 39.7 70.2H86.5C101 70.2 112.8 58.4 112.8 43.9C112.8 29.6 101 18 86.5 18H39.7C34.7 18 30.7 14 30.7 9C30.7 4 34.7 0 39.7 0H86.5C110.9 0 130.8 19.7 130.8 43.9C130.8 68.3 111 88.2 86.5 88.2Z" fill="#0059F8"/>
<path d="M90.8 158.4H39.8C34.8 158.4 30.8 154.4 30.8 149.4C30.8 144.4 34.8 140.4 39.8 140.4H90.8C105.1 140.4 116.7 128.6 116.7 114.1C116.7 99.7999 105.1 88.2 90.8 88.2H39.8C34.8 88.2 30.8 84.2 30.8 79.2C30.8 74.2 34.8 70.2 39.8 70.2H90.8C115 70.2 134.7 89.8999 134.7 114.1C134.7 138.5 115 158.4 90.8 158.4Z" fill="#0059F8"/>
<path d="M250.8 18H161.8C156.8 18 152.8 14 152.8 9C152.8 4 156.8 0 161.8 0H250.8C255.8 0 259.8 4 259.8 9C259.8 14 255.7 18 250.8 18Z" fill="#0059F8"/>
<path d="M250.8 111.2H192.9C187.9 111.2 183.9 107.2 183.9 102.2C183.9 97.2 187.9 93.2 192.9 93.2H250.8C255.8 93.2 259.8 97.2 259.8 102.2C259.8 107.2 255.7 111.2 250.8 111.2Z" fill="#0059F8"/>
<path d="M9.00001 158.4C4.00001 158.4 0 154.4 0 149.4V9C0 4 4.00001 0 9.00001 0C14 0 18 4 18 9V149.4C18 154.4 14 158.4 9.00001 158.4Z" fill="#0059F8"/>
</svg>
