<svg width="55" height="55" viewBox="0 0 55 55" fill="none" xmlns="http://www.w3.org/2000/svg">
<path d="M26.0122 0.436728L0.644315 22.1903C0.23719 22.5335 0.00157702 23.0384 2.75483e-05 23.5709V32.6263C-0.00818308 34.1832 1.82081 35.0254 2.99844 34.0069L5.44461 31.9077V52.5638C5.44471 53.5648 6.25613 54.3762 7.25711 54.3763H19.9446C20.9456 54.3762 21.757 53.5648 21.7571 52.5638V32.6263H32.6321V52.5638C32.6322 53.5648 33.4436 54.3762 34.4446 54.3763H47.1321C48.1331 54.3762 48.9445 53.5648 48.9446 52.5638V31.9112L51.3908 34.0069C52.5678 35.0038 54.3728 34.1688 54.375 32.6263V23.5709C54.3779 23.0412 54.149 22.5368 53.7484 22.1903L28.3805 0.436728C27.6996 -0.14717 26.6894 -0.14398 26.0122 0.436728ZM27.1875 4.19625L50.7642 24.3993V28.6933L28.3805 9.49215C27.7002 8.90517 26.6925 8.90517 26.0122 9.49215L3.62503 28.6933V24.3992L27.1875 4.19625ZM27.1875 13.2658L45.3196 28.8031V50.7513H36.2571V30.8138C36.257 29.8128 35.4456 29.0014 34.4446 29.0013H19.9446C18.9436 29.0014 18.1322 29.8128 18.1321 30.8138V50.7513H9.06961V28.7995L27.1875 13.2658Z" fill="white"/>
</svg>
