<svg width="130" height="132" viewBox="0 0 130 132" fill="none" xmlns="http://www.w3.org/2000/svg">
<path d="M64.7925 96.2683C59.01 95.83 55.425 92.8986 54.5225 92.129C53.8325 91.5487 53.17 90.9385 52.595 90.3931L51.555 89.3595C46.535 84.0496 44.9325 78.4757 46.195 70.7276C46.7325 67.4525 47.9375 64.4364 49.2125 61.241C49.56 60.3718 49.9075 59.4951 50.2475 58.6085C50.61 60.987 50.845 63.2634 50.93 64.9146L51.325 72.5557L55.52 66.1449C60.5475 58.4616 64.855 42.4846 65.52 30.8063C65.675 28.0169 65.3375 25.3868 64.23 22.007C63.1225 18.6273 59.815 19.1927 59.815 19.1927L60.44 24.4254C61.375 32.2608 58.7225 46.2802 54.9025 56.1403C54.32 52.8379 53.8125 50.7134 53.2025 47.8667C52.185 43.1222 48.905 40.2406 48.905 40.2406C48.905 40.2406 48.9825 43.1994 48.2025 47.9464C47.415 52.7258 46.085 55.5999 44.5675 59.4055C43.2525 62.7055 41.89 66.1175 41.2625 69.9306C39.74 79.2578 41.7925 86.3036 47.965 92.8314L49.1025 93.9621C49.7825 94.6121 50.525 95.2895 51.285 95.9296C52.8075 97.2247 57.365 100.704 64.4125 101.237C64.4775 101.242 64.5425 101.244 64.605 101.244C65.9 101.244 66.995 100.251 67.095 98.9432C67.2 97.5684 66.1675 96.3729 64.7925 96.2683Z" fill="black"/>
<path d="M98.1495 58.5134C95.9295 48.5113 90.312 40.6261 88.667 38.7507C85.572 34.97 82.967 34.3225 82.967 34.3225C82.967 34.3225 84.4245 37.6698 84.657 41.463C84.8895 45.2561 84.2845 46.5661 82.982 49.8811C81.9395 46.3071 76.562 34.9426 72.812 29.2617C69.2695 23.8969 64.2595 18.1611 59.0845 14.9483C59.202 16.1836 59.8895 19.5683 60.007 20.7861C68.5445 29.4086 78.007 49.3431 79.637 57.1211L80.6495 61.9479L83.9495 58.2718C85.6045 56.4288 87.752 52.0827 88.917 47.8288C90.502 50.81 92.2195 54.8572 93.2695 59.5893C95.002 67.3947 95.187 78.809 86.232 88.8559C84.672 90.6093 81.2895 95.8694 74.3345 96.2629C72.9545 96.3426 71.902 97.5181 71.9795 98.8904C72.0545 100.215 73.157 101.239 74.4745 101.239C74.522 101.239 74.572 101.239 74.6195 101.236C80.612 100.895 84.8745 97.8892 89.972 92.1609C100.324 80.5449 100.134 67.452 98.1495 58.5134Z" fill="black"/>
</svg>
