<svg width="52" height="53" viewBox="0 0 52 53" fill="none" xmlns="http://www.w3.org/2000/svg">
<path d="M25.917 38.6532C23.604 38.4772 22.17 37.3002 21.809 36.9912C21.533 36.7582 21.268 36.5132 21.038 36.2942L20.622 35.8792C18.614 33.7472 17.973 31.5092 18.478 28.3982C18.693 27.0832 19.175 25.8722 19.685 24.5892C19.824 24.2402 19.963 23.8882 20.099 23.5322C20.244 24.4872 20.338 25.4012 20.372 26.0642L20.53 29.1322L22.208 26.5582C24.219 23.4732 25.942 17.0582 26.208 12.3692C26.27 11.2492 26.135 10.1932 25.692 8.83616C25.249 7.47916 23.926 7.70616 23.926 7.70616L24.176 9.80716C24.55 12.9532 23.489 18.5822 21.961 22.5412C21.728 21.2152 21.525 20.3622 21.281 19.2192C20.874 17.3142 19.562 16.1572 19.562 16.1572C19.562 16.1572 19.593 17.3452 19.281 19.2512C18.966 21.1702 18.434 22.3242 17.827 23.8522C17.301 25.1772 16.756 26.5472 16.505 28.0782C15.896 31.8232 16.717 34.6522 19.186 37.2732L19.641 37.7272C19.913 37.9882 20.21 38.2602 20.514 38.5172C21.123 39.0372 22.946 40.4342 25.765 40.6482C25.791 40.6502 25.817 40.6512 25.842 40.6512C26.36 40.6512 26.798 40.2522 26.838 39.7272C26.88 39.1752 26.467 38.6952 25.917 38.6532Z" fill="#768CAE"/>
<path d="M39.2598 23.494C38.3718 19.478 36.1248 16.312 35.4668 15.559C34.2288 14.041 33.1868 13.781 33.1868 13.781C33.1868 13.781 33.7698 15.125 33.8628 16.648C33.9558 18.171 33.7138 18.697 33.1928 20.028C32.7758 18.593 30.6248 14.03 29.1248 11.749C27.7078 9.59495 25.7038 7.29195 23.6338 6.00195C23.6808 6.49795 23.9558 7.85695 24.0028 8.34595C27.4178 11.808 31.2028 19.812 31.8548 22.935L32.2598 24.873L33.5798 23.397C34.2418 22.657 35.1008 20.912 35.5668 19.204C36.2008 20.401 36.8878 22.026 37.3078 23.926C38.0008 27.06 38.0748 31.643 34.4928 35.677C33.8688 36.381 32.5158 38.493 29.7338 38.651C29.1818 38.683 28.7608 39.155 28.7918 39.706C28.8218 40.238 29.2628 40.6489 29.7898 40.6489C29.8088 40.6489 29.8288 40.6489 29.8478 40.6479C32.2448 40.5109 33.9498 39.304 35.9888 37.004C40.1298 32.34 40.0538 27.083 39.2598 23.494Z" fill="#768CAE"/>
</svg>
