<svg width="231" height="177" viewBox="0 0 231 177" fill="none" xmlns="http://www.w3.org/2000/svg">
<path d="M178.884 15.5439C154 15.5439 135.22 33.0935 127.707 60.6714C115.97 41.1161 106.579 19.0538 101.415 0H75.1219V73.7082C75.1219 88.2493 63.8537 100.283 50.2378 100.283C36.6219 100.283 25.3537 88.2493 25.3537 73.7082V0.501414H0V74.2096C0 104.796 23.0061 129.365 51.1768 129.365C79.3476 129.365 102.354 104.796 102.354 74.2096V61.6742C107.518 72.7054 114.091 84.7394 121.134 95.2691L104.701 177H131.463L142.732 117.331C153.061 124.351 164.799 128.363 178.884 128.363C207.524 128.363 231 103.292 231 71.2011C231 40.6147 207.524 15.5439 178.884 15.5439ZM178.884 100.283C168.555 100.283 157.756 95.2691 149.305 87.7479L152.122 76.7167V76.2153C154 64.1813 160.104 44.1246 179.354 44.1246C193.909 44.1246 205.646 56.6601 205.646 72.204C205.177 87.7479 192.5 100.283 178.884 100.283Z" fill="black"/>
</svg>
